<svg xmlns="http://www.w3.org/2000/svg" xmlns:xlink="http://www.w3.org/1999/xlink" xmlns:lucid="lucid" width="2158.46" height="1502.17"><g transform="translate(579.2313848332194 414.53767903645826)" lucid:page-tab-id="0_0"><path d="M-1000-500h3000v2000h-3000z" fill="#f2f3f5"/><path d="M-577.23-340.96a6 6 0 0 1 6-6h2142.46a6 6 0 0 1 6 6v1420.6a6 6 0 0 1-6 6H-571.23a6 6 0 0 1-6-6z" stroke="#000" stroke-width="4" fill-opacity="0"/><path d="M-577.23-406.54a6 6 0 0 1 6-6h466.4a6 6 0 0 1 6 6v41.58a6 6 0 0 1-6 6h-466.4a6 6 0 0 1-6-6z" stroke="#000" stroke-width="4"/><use xlink:href="#a" transform="matrix(1,0,0,1,-565.2313848332194,-400.53767903645826) translate(0 23.89214409722222)"/><use xlink:href="#b" transform="matrix(1,0,0,1,-565.2313848332194,-400.53767903645826) translate(41.96614583333333 23.89214409722222)"/><use xlink:href="#c" transform="matrix(1,0,0,1,-565.2313848332194,-400.53767903645826) translate(102.05078125 23.89214409722222)"/><use xlink:href="#d" transform="matrix(1,0,0,1,-565.2313848332194,-400.53767903645826) translate(170.53819444444446 23.89214409722222)"/><use xlink:href="#e" transform="matrix(1,0,0,1,-565.2313848332194,-400.53767903645826) translate(377.5998263888889 23.89214409722222)"/><path d="M-498.52-253.96a12 12 0 0 1 12-12h32.58v558.7h-44.58z" stroke="#3a414a" stroke-width="2" fill="#fff"/><path d="M-498.52 292.73h44.58v388.2h-44.58zM-498.52 680.94h44.58v323.7h-32.58a12 12 0 0 1-12-12z" stroke="#3a414a" stroke-width="2" fill="#fff"/><path d="M-453.94-265.96h1962.88a12 12 0 0 1 12 12v546.7H-453.94z" stroke="#3a414a" stroke-width="2" fill="none"/><path d="M-453.94 292.73h1974.88v388.2H-453.94zM-453.94 680.94h1974.88v311.7a12 12 0 0 1-12 12H-453.94z" stroke="#3a414a" stroke-width="2" fill="none"/><use xlink:href="#f" transform="matrix(-1.8369701987210297e-16,-1,1,-1.8369701987210297e-16,-498.5197962915528,292.72648111979174) translate(216.83723958333334 31.39214409722222)"/><use xlink:href="#g" transform="matrix(-1.8369701987210297e-16,-1,1,-1.8369701987210297e-16,-498.5197962915528,292.72648111979174) translate(278.25868055555554 31.39214409722222)"/><use xlink:href="#h" transform="matrix(-1.8369701987210297e-16,-1,1,-1.8369701987210297e-16,-498.5197962915529,680.9426269531251) translate(129.65896267361111 31.39214409722222)"/><use xlink:href="#i" transform="matrix(-1.8369701987210297e-16,-1,1,-1.8369701987210297e-16,-498.5197962915529,680.9426269531251) translate(195.43695746527777 31.39214409722222)"/><use xlink:href="#j" transform="matrix(-1.8369701987210297e-16,-1,1,-1.8369701987210297e-16,-498.519796291553,1004.6275227864585) translate(95.4640842013889 31.39214409722222)"/><use xlink:href="#i" transform="matrix(-1.8369701987210297e-16,-1,1,-1.8369701987210297e-16,-498.519796291553,1004.6275227864585) translate(164.6318359375 31.39214409722222)"/><path d="M-373.94 1.03a6 6 0 0 1 6-6h231.77a6 6 0 0 1 6 6v171.6a6 6 0 0 1-6 6h-231.77a6 6 0 0 1-6-6z" stroke="#1071e5" stroke-width="4" fill="#cfe4ff"/><use xlink:href="#f" transform="matrix(1,0,0,1,-361.94297337488615,7.034609696502173) translate(46.09592013888889 59.30555555555556)"/><use xlink:href="#k" transform="matrix(1,0,0,1,-361.94297337488615,7.034609696502173) translate(107.51736111111111 59.30555555555556)"/><use xlink:href="#l" transform="matrix(1,0,0,1,-361.94297337488615,7.034609696502173) translate(33.76030815972223 88.88237847222221)"/><use xlink:href="#m" transform="matrix(1,0,0,1,-361.94297337488615,7.034609696502173) translate(142.57866753472223 88.88237847222221)"/><use xlink:href="#n" transform="matrix(1,0,0,1,-361.94297337488615,7.034609696502173) translate(6.463216145833343 118.45920138888887)"/><path d="M436.68-35.47a8 8 0 0 1 9.6 0l158.26 118.7a4.5 4.5 0 0 1 0 7.2l-158.26 118.7a8 8 0 0 1-9.6 0L278.4 90.43a4.5 4.5 0 0 1 0-7.2z" stroke="#d916a8" stroke-width="4" fill="#ff80df"/><use xlink:href="#o" transform="matrix(1,0,0,1,278.6091099584471,-34.07283528645823) translate(94.70259114583334 114.90321180555556)"/><use xlink:href="#p" transform="matrix(1,0,0,1,278.6091099584471,-34.07283528645823) translate(153.8204296875 114.90321180555556)"/><use xlink:href="#q" transform="matrix(1,0,0,1,278.6091099584471,-34.07283528645823) translate(128.90452256944445 144.4800347222222)"/><path d="M689.34 378.73a6 6 0 0 1 6-6H858.3a6 6 0 0 1 6 6v119.75a6 6 0 0 1-6 6H695.33a6 6 0 0 1-6-6z" stroke="#1071e5" stroke-width="4" fill="#cfe4ff"/><use xlink:href="#r" transform="matrix(1,0,0,1,701.341531833447,384.7264811197918) translate(1.6295572916666856 33.38368055555556)"/><use xlink:href="#s" transform="matrix(1,0,0,1,701.341531833447,384.7264811197918) translate(127.83832465277777 33.38368055555556)"/><use xlink:href="#t" transform="matrix(1,0,0,1,701.341531833447,384.7264811197918) translate(9.196831597222229 62.960503472222214)"/><use xlink:href="#u" transform="matrix(1,0,0,1,701.341531833447,384.7264811197918) translate(76.466796875 62.960503472222214)"/><use xlink:href="#v" transform="matrix(1,0,0,1,701.341531833447,384.7264811197918) translate(37.38313802083334 92.53732638888889)"/><path d="M944.3 773.74a6 6 0 0 1 6-6h187.3a6 6 0 0 1 6 6v138.1a6 6 0 0 1-6 6H950.3a6 6 0 0 1-6-6z" stroke="#1071e5" stroke-width="4" fill="#cfe4ff"/><use xlink:href="#w" transform="matrix(1,0,0,1,956.2916186390024,779.7403726878645) translate(50.00249565972223 43.02821180555556)"/><use xlink:href="#x" transform="matrix(1,0,0,1,956.2916186390024,779.7403726878645) translate(0.38552517361111427 72.60503472222221)"/><use xlink:href="#y" transform="matrix(1,0,0,1,956.2916186390024,779.7403726878645) translate(37.267035590277786 102.18185763888889)"/><path d="M1223.6 766.94a6 6 0 0 1 6-6h205.34a6 6 0 0 1 6 6v151.7a6 6 0 0 1-6 6H1229.6a6 6 0 0 1-6-6z" stroke="#1071e5" stroke-width="4" fill="#cfe4ff"/><use xlink:href="#z" transform="matrix(1,0,0,1,1235.5906637778912,772.9426269531252) translate(46.45800781250001 34.61805555555556)"/><use xlink:href="#A" transform="matrix(1,0,0,1,1235.5906637778912,772.9426269531252) translate(28.572265625 64.19487847222221)"/><use xlink:href="#B" transform="matrix(1,0,0,1,1235.5906637778912,772.9426269531252) translate(46.69075520833333 64.19487847222221)"/><use xlink:href="#C" transform="matrix(1,0,0,1,1235.5906637778912,772.9426269531252) translate(156.619140625 64.19487847222221)"/><use xlink:href="#D" transform="matrix(1,0,0,1,1235.5906637778912,772.9426269531252) translate(23.410047743055557 93.77170138888889)"/><use xlink:href="#A" transform="matrix(1,0,0,1,1235.5906637778912,772.9426269531252) translate(65.50748697916667 123.34852430555556)"/><use xlink:href="#E" transform="matrix(1,0,0,1,1235.5906637778912,772.9426269531252) translate(83.6259765625 123.34852430555556)"/><path d="M-89.43 87.8h-37.74v-1.95h37.74zm345.53 0h-20.24v-1.95h20.24z" stroke="#000" stroke-width=".05"/><path d="M-127.14 87.8h-1.03v-1.95h1.03z"/><path stroke="#000" stroke-width=".05"/><path d="M271.36 86.83l-14.26 4.63V82.2z"/><path d="M274.52 86.83l-18.4 5.97V80.85zm-16.45 3.3l10.14-3.3-10.13-3.3z" stroke="#000" stroke-width=".05"/><use xlink:href="#F" transform="matrix(1,0,0,1,-89.4258917719973,57.25000000000011) translate(0.0049999999999954525 23.680555555555554)"/><use xlink:href="#G" transform="matrix(1,0,0,1,-89.4258917719973,57.25000000000011) translate(72.21637152777778 23.680555555555554)"/><use xlink:href="#H" transform="matrix(1,0,0,1,-89.4258917719973,57.25000000000011) translate(112.475703125 23.680555555555554)"/><use xlink:href="#I" transform="matrix(1,0,0,1,-89.4258917719973,57.25000000000011) translate(169.7196267361111 23.680555555555554)"/><use xlink:href="#J" transform="matrix(1,0,0,1,-89.4258917719973,57.25000000000011) translate(255.14388888888888 23.680555555555554)"/><use xlink:href="#K" transform="matrix(1,0,0,1,-89.4258917719973,57.25000000000011) translate(131.68631510416668 53.257378472222214)"/><path d="M777.8 352.23h-1.96v-192.9h1.95zm0-222.48h-1.96V87.8h-166.5v-1.95H777.8z" stroke="#000" stroke-width=".05"/><path d="M609.38 87.8h-1.12l.1-.97-.1-.98h1.12z"/><path stroke="#000" stroke-width=".05"/><path d="M776.82 367.5l-4.64-14.27h9.27z"/><path d="M776.82 370.65l-5.98-18.4h11.95zm-3.3-16.45l3.3 10.13 3.3-10.13z" stroke="#000" stroke-width=".05"/><use xlink:href="#F" transform="matrix(1,0,0,1,656.2056811390025,129.75501333394826) translate(0.0049999999999954525 23.680555555555554)"/><use xlink:href="#G" transform="matrix(1,0,0,1,656.2056811390025,129.75501333394826) translate(72.21637152777778 23.680555555555554)"/><use xlink:href="#H" transform="matrix(1,0,0,1,656.2056811390025,129.75501333394826) translate(112.475703125 23.680555555555554)"/><use xlink:href="#L" transform="matrix(1,0,0,1,656.2056811390025,129.75501333394826) translate(169.7196267361111 23.680555555555554)"/><path d="M867.3 416.64h209.86v330.6" stroke="#000" stroke-width="2" fill="none"/><path d="M867.32 417.62h-1.03v-1.95h1.02z" stroke="#000" stroke-width=".05"/><path d="M1077.16 762.5l-4.64-14.26h9.27z" stroke="#000" stroke-width="2"/><use xlink:href="#F" transform="matrix(1,0,0,1,959.4458562791691,323.91352387242097) translate(12.006410590277767 23.680555555555554)"/><use xlink:href="#M" transform="matrix(1,0,0,1,959.4458562791691,323.91352387242097) translate(84.21778211805555 23.680555555555554)"/><use xlink:href="#N" transform="matrix(1,0,0,1,959.4458562791691,323.91352387242097) translate(0.0049999999999954525 53.257378472222214)"/><use xlink:href="#O" transform="matrix(1,0,0,1,959.4458562791691,323.91352387242097) translate(71.94184895833332 53.257378472222214)"/><use xlink:href="#P" transform="matrix(1,0,0,1,959.4458562791691,323.91352387242097) translate(29.66537326388889 82.83420138888889)"/><path d="M686.34 437.63v1.95H547.77v-1.95zm-243.9-58.18h-1.94V231.23h1.95z" stroke="#000" stroke-width=".05"/><path d="M687.34 439.58h-1.02v-1.95h1.02z"/><path stroke="#000" stroke-width=".05"/><path d="M446.1 230.23h-9.26l4.64-14.26z"/><path d="M447.45 231.2H435.5l5.98-18.4zm-9.27-1.94h6.6l-3.3-10.14z" stroke="#000" stroke-width=".05"/><use xlink:href="#F" transform="matrix(1,0,0,1,355.1746135131901,379.44910254040224) translate(14.882929687499981 23.680555555555554)"/><use xlink:href="#G" transform="matrix(1,0,0,1,355.1746135131901,379.44910254040224) translate(87.09430121527777 23.680555555555554)"/><use xlink:href="#Q" transform="matrix(1,0,0,1,355.1746135131901,379.44910254040224) translate(127.35363281249998 23.680555555555554)"/><use xlink:href="#I" transform="matrix(1,0,0,1,355.1746135131901,379.44910254040224) translate(0.0049999999999954525 53.257378472222214)"/><use xlink:href="#R" transform="matrix(1,0,0,1,355.1746135131901,379.44910254040224) translate(85.42926215277777 53.257378472222214)"/><use xlink:href="#S" transform="matrix(1,0,0,1,355.1746135131901,379.44910254040224) translate(7.846796874999981 82.83420138888889)"/><use xlink:href="#T" transform="matrix(1,0,0,1,355.1746135131901,379.44910254040224) translate(63.097447916666646 82.83420138888889)"/><use xlink:href="#U" transform="matrix(1,0,0,1,355.1746135131901,379.44910254040224) translate(71.03473090277777 112.41102430555556)"/><path d="M1010.73 764.74V460.56H884.8" stroke="#000" stroke-width="2" fill="none"/><path d="M1011.7 765.74h-1.95v-1.02h1.95z" stroke="#000" stroke-width=".05"/><path d="M869.53 460.56l14.26-4.63v9.27z" stroke="#000" stroke-width="2"/><use xlink:href="#V" transform="matrix(1,0,0,1,903.7818886121756,464.5615041250501) translate(6.515959201388881 23.680555555555554)"/><use xlink:href="#M" transform="matrix(1,0,0,1,903.7818886121756,464.5615041250501) translate(7.51259548611111 53.257378472222214)"/><use xlink:href="#W" transform="matrix(1,0,0,1,903.7818886121756,464.5615041250501) translate(6.65322048611111 82.83420138888889)"/><use xlink:href="#X" transform="matrix(1,0,0,1,903.7818886121756,464.5615041250501) translate(0.005000000000002558 112.41102430555556)"/><use xlink:href="#Y" transform="matrix(1,0,0,1,903.7818886121756,464.5615041250501) translate(13.916132812499999 141.9878472222222)"/><use xlink:href="#Z" transform="matrix(1,0,0,1,903.7818886121756,464.5615041250501) translate(5.811749131944445 171.56467013888886)"/><path d="M1146.6 842.8h56.5" stroke="#000" stroke-width="2" fill="none"/><path d="M1146.62 843.76h-1.03v-1.95h1.02z" stroke="#000" stroke-width=".05"/><path d="M1218.36 842.8l-14.27 4.62v-9.27z" stroke="#000" stroke-width="2"/><path d="M-498.52-253.96a12 12 0 0 1 12-12h32.58v558.7h-44.58z" stroke="#3a414a" stroke-width="2" fill="#fff"/><path d="M-498.52 292.73h44.58v388.2h-44.58zM-498.52 680.94h44.58v323.7h-32.58a12 12 0 0 1-12-12z" stroke="#3a414a" stroke-width="2" fill="#fff"/><path d="M-453.94-265.96h1962.88a12 12 0 0 1 12 12v546.7H-453.94z" stroke="#3a414a" stroke-width="2" fill="none"/><path d="M-453.94 292.73h1974.88v388.2H-453.94zM-453.94 680.94h1974.88v311.7a12 12 0 0 1-12 12H-453.94z" stroke="#3a414a" stroke-width="2" fill="none"/><g><use xlink:href="#f" transform="matrix(-1.8369701987210297e-16,-1,1,-1.8369701987210297e-16,-498.5197962915528,292.72648111979174) translate(216.83723958333334 31.39214409722222)"/><use xlink:href="#g" transform="matrix(-1.8369701987210297e-16,-1,1,-1.8369701987210297e-16,-498.5197962915528,292.72648111979174) translate(278.25868055555554 31.39214409722222)"/></g><g><use xlink:href="#h" transform="matrix(-1.8369701987210297e-16,-1,1,-1.8369701987210297e-16,-498.5197962915529,680.9426269531251) translate(129.65896267361111 31.39214409722222)"/><use xlink:href="#i" transform="matrix(-1.8369701987210297e-16,-1,1,-1.8369701987210297e-16,-498.5197962915529,680.9426269531251) translate(195.43695746527777 31.39214409722222)"/></g><g><use xlink:href="#j" transform="matrix(-1.8369701987210297e-16,-1,1,-1.8369701987210297e-16,-498.519796291553,1004.6275227864585) translate(95.4640842013889 31.39214409722222)"/><use xlink:href="#i" transform="matrix(-1.8369701987210297e-16,-1,1,-1.8369701987210297e-16,-498.519796291553,1004.6275227864585) translate(164.6318359375 31.39214409722222)"/></g><path d="M-373.94 1.03a6 6 0 0 1 6-6h231.77a6 6 0 0 1 6 6v171.6a6 6 0 0 1-6 6h-231.77a6 6 0 0 1-6-6z" stroke="#1071e5" stroke-width="4" fill="#cfe4ff"/><g><use xlink:href="#f" transform="matrix(1,0,0,1,-361.94297337488615,7.034609696502173) translate(46.09592013888889 59.30555555555556)"/><use xlink:href="#k" transform="matrix(1,0,0,1,-361.94297337488615,7.034609696502173) translate(107.51736111111111 59.30555555555556)"/><use xlink:href="#l" transform="matrix(1,0,0,1,-361.94297337488615,7.034609696502173) translate(33.76030815972223 88.88237847222221)"/><use xlink:href="#m" transform="matrix(1,0,0,1,-361.94297337488615,7.034609696502173) translate(142.57866753472223 88.88237847222221)"/><use xlink:href="#n" transform="matrix(1,0,0,1,-361.94297337488615,7.034609696502173) translate(6.463216145833343 118.45920138888887)"/></g><path d="M436.68-35.47a8 8 0 0 1 9.6 0l158.26 118.7a4.5 4.5 0 0 1 0 7.2l-158.26 118.7a8 8 0 0 1-9.6 0L278.4 90.43a4.5 4.5 0 0 1 0-7.2z" stroke="#d916a8" stroke-width="4" fill="#ff80df"/><g><use xlink:href="#o" transform="matrix(1,0,0,1,278.6091099584471,-34.07283528645823) translate(94.70259114583334 114.90321180555556)"/><use xlink:href="#p" transform="matrix(1,0,0,1,278.6091099584471,-34.07283528645823) translate(153.8204296875 114.90321180555556)"/><use xlink:href="#q" transform="matrix(1,0,0,1,278.6091099584471,-34.07283528645823) translate(128.90452256944445 144.4800347222222)"/></g><path d="M689.34 378.73a6 6 0 0 1 6-6H858.3a6 6 0 0 1 6 6v119.75a6 6 0 0 1-6 6H695.33a6 6 0 0 1-6-6z" stroke="#1071e5" stroke-width="4" fill="#cfe4ff"/><g><use xlink:href="#r" transform="matrix(1,0,0,1,701.341531833447,384.7264811197918) translate(1.6295572916666856 33.38368055555556)"/><use xlink:href="#s" transform="matrix(1,0,0,1,701.341531833447,384.7264811197918) translate(127.83832465277777 33.38368055555556)"/><use xlink:href="#t" transform="matrix(1,0,0,1,701.341531833447,384.7264811197918) translate(9.196831597222229 62.960503472222214)"/><use xlink:href="#u" transform="matrix(1,0,0,1,701.341531833447,384.7264811197918) translate(76.466796875 62.960503472222214)"/><use xlink:href="#v" transform="matrix(1,0,0,1,701.341531833447,384.7264811197918) translate(37.38313802083334 92.53732638888889)"/></g><path d="M944.3 773.74a6 6 0 0 1 6-6h187.3a6 6 0 0 1 6 6v138.1a6 6 0 0 1-6 6H950.3a6 6 0 0 1-6-6z" stroke="#1071e5" stroke-width="4" fill="#cfe4ff"/><g><use xlink:href="#w" transform="matrix(1,0,0,1,956.2916186390024,779.7403726878645) translate(50.00249565972223 43.02821180555556)"/><use xlink:href="#x" transform="matrix(1,0,0,1,956.2916186390024,779.7403726878645) translate(0.38552517361111427 72.60503472222221)"/><use xlink:href="#y" transform="matrix(1,0,0,1,956.2916186390024,779.7403726878645) translate(37.267035590277786 102.18185763888889)"/></g><path d="M1223.6 766.94a6 6 0 0 1 6-6h205.34a6 6 0 0 1 6 6v151.7a6 6 0 0 1-6 6H1229.6a6 6 0 0 1-6-6z" stroke="#1071e5" stroke-width="4" fill="#cfe4ff"/><g><use xlink:href="#z" transform="matrix(1,0,0,1,1235.5906637778912,772.9426269531252) translate(46.45800781250001 34.61805555555556)"/><use xlink:href="#A" transform="matrix(1,0,0,1,1235.5906637778912,772.9426269531252) translate(28.572265625 64.19487847222221)"/><use xlink:href="#B" transform="matrix(1,0,0,1,1235.5906637778912,772.9426269531252) translate(46.69075520833333 64.19487847222221)"/><use xlink:href="#C" transform="matrix(1,0,0,1,1235.5906637778912,772.9426269531252) translate(156.619140625 64.19487847222221)"/><use xlink:href="#D" transform="matrix(1,0,0,1,1235.5906637778912,772.9426269531252) translate(23.410047743055557 93.77170138888889)"/><use xlink:href="#A" transform="matrix(1,0,0,1,1235.5906637778912,772.9426269531252) translate(65.50748697916667 123.34852430555556)"/><use xlink:href="#E" transform="matrix(1,0,0,1,1235.5906637778912,772.9426269531252) translate(83.6259765625 123.34852430555556)"/></g><path d="M-89.43 87.8h-37.74v-1.95h37.74zm345.53 0h-20.24v-1.95h20.24z" stroke="#000" stroke-width=".05"/><path d="M-127.14 87.8h-1.03v-1.95h1.03z"/><path stroke="#000" stroke-width=".05"/><path d="M271.36 86.83l-14.26 4.63V82.2z"/><path d="M274.52 86.83l-18.4 5.97V80.85zm-16.45 3.3l10.14-3.3-10.13-3.3z" stroke="#000" stroke-width=".05"/><g><use xlink:href="#F" transform="matrix(1,0,0,1,-89.4258917719973,57.25000000000011) translate(0.0049999999999954525 23.680555555555554)"/><use xlink:href="#G" transform="matrix(1,0,0,1,-89.4258917719973,57.25000000000011) translate(72.21637152777778 23.680555555555554)"/><use xlink:href="#H" transform="matrix(1,0,0,1,-89.4258917719973,57.25000000000011) translate(112.475703125 23.680555555555554)"/><use xlink:href="#I" transform="matrix(1,0,0,1,-89.4258917719973,57.25000000000011) translate(169.7196267361111 23.680555555555554)"/><use xlink:href="#J" transform="matrix(1,0,0,1,-89.4258917719973,57.25000000000011) translate(255.14388888888888 23.680555555555554)"/><use xlink:href="#K" transform="matrix(1,0,0,1,-89.4258917719973,57.25000000000011) translate(131.68631510416668 53.257378472222214)"/></g><path d="M777.8 352.23h-1.96v-192.9h1.95zm0-222.48h-1.96V87.8h-166.5v-1.95H777.8z" stroke="#000" stroke-width=".05"/><path d="M609.38 87.8h-1.12l.1-.97-.1-.98h1.12z"/><path stroke="#000" stroke-width=".05"/><path d="M776.82 367.5l-4.64-14.27h9.27z"/><path d="M776.82 370.65l-5.98-18.4h11.95zm-3.3-16.45l3.3 10.13 3.3-10.13z" stroke="#000" stroke-width=".05"/><g><use xlink:href="#F" transform="matrix(1,0,0,1,656.2056811390025,129.75501333394826) translate(0.0049999999999954525 23.680555555555554)"/><use xlink:href="#G" transform="matrix(1,0,0,1,656.2056811390025,129.75501333394826) translate(72.21637152777778 23.680555555555554)"/><use xlink:href="#H" transform="matrix(1,0,0,1,656.2056811390025,129.75501333394826) translate(112.475703125 23.680555555555554)"/><use xlink:href="#L" transform="matrix(1,0,0,1,656.2056811390025,129.75501333394826) translate(169.7196267361111 23.680555555555554)"/></g><path d="M867.3 416.64h209.86v330.6" stroke="#000" stroke-width="2" fill="none"/><path d="M867.32 417.62h-1.03v-1.95h1.02z" stroke="#000" stroke-width=".05"/><path d="M1077.16 762.5l-4.64-14.26h9.27z" stroke="#000" stroke-width="2"/><g><use xlink:href="#F" transform="matrix(1,0,0,1,959.4458562791691,323.91352387242097) translate(12.006410590277767 23.680555555555554)"/><use xlink:href="#M" transform="matrix(1,0,0,1,959.4458562791691,323.91352387242097) translate(84.21778211805555 23.680555555555554)"/><use xlink:href="#N" transform="matrix(1,0,0,1,959.4458562791691,323.91352387242097) translate(0.0049999999999954525 53.257378472222214)"/><use xlink:href="#O" transform="matrix(1,0,0,1,959.4458562791691,323.91352387242097) translate(71.94184895833332 53.257378472222214)"/><use xlink:href="#P" transform="matrix(1,0,0,1,959.4458562791691,323.91352387242097) translate(29.66537326388889 82.83420138888889)"/></g><path d="M686.34 437.63v1.95H547.77v-1.95zm-243.9-58.18h-1.94V231.23h1.95z" stroke="#000" stroke-width=".05"/><path d="M687.34 439.58h-1.02v-1.95h1.02z"/><path stroke="#000" stroke-width=".05"/><path d="M446.1 230.23h-9.26l4.64-14.26z"/><path d="M447.45 231.2H435.5l5.98-18.4zm-9.27-1.94h6.6l-3.3-10.14z" stroke="#000" stroke-width=".05"/><g><use xlink:href="#F" transform="matrix(1,0,0,1,355.1746135131901,379.44910254040224) translate(14.882929687499981 23.680555555555554)"/><use xlink:href="#G" transform="matrix(1,0,0,1,355.1746135131901,379.44910254040224) translate(87.09430121527777 23.680555555555554)"/><use xlink:href="#Q" transform="matrix(1,0,0,1,355.1746135131901,379.44910254040224) translate(127.35363281249998 23.680555555555554)"/><use xlink:href="#I" transform="matrix(1,0,0,1,355.1746135131901,379.44910254040224) translate(0.0049999999999954525 53.257378472222214)"/><use xlink:href="#R" transform="matrix(1,0,0,1,355.1746135131901,379.44910254040224) translate(85.42926215277777 53.257378472222214)"/><use xlink:href="#S" transform="matrix(1,0,0,1,355.1746135131901,379.44910254040224) translate(7.846796874999981 82.83420138888889)"/><use xlink:href="#T" transform="matrix(1,0,0,1,355.1746135131901,379.44910254040224) translate(63.097447916666646 82.83420138888889)"/><use xlink:href="#U" transform="matrix(1,0,0,1,355.1746135131901,379.44910254040224) translate(71.03473090277777 112.41102430555556)"/></g><path d="M1010.73 764.74V460.56H884.8" stroke="#000" stroke-width="2" fill="none"/><path d="M1011.7 765.74h-1.95v-1.02h1.95z" stroke="#000" stroke-width=".05"/><path d="M869.53 460.56l14.26-4.63v9.27z" stroke="#000" stroke-width="2"/><g><use xlink:href="#V" transform="matrix(1,0,0,1,903.7818886121756,464.5615041250501) translate(6.515959201388881 23.680555555555554)"/><use xlink:href="#M" transform="matrix(1,0,0,1,903.7818886121756,464.5615041250501) translate(7.51259548611111 53.257378472222214)"/><use xlink:href="#W" transform="matrix(1,0,0,1,903.7818886121756,464.5615041250501) translate(6.65322048611111 82.83420138888889)"/><use xlink:href="#X" transform="matrix(1,0,0,1,903.7818886121756,464.5615041250501) translate(0.005000000000002558 112.41102430555556)"/><use xlink:href="#Y" transform="matrix(1,0,0,1,903.7818886121756,464.5615041250501) translate(13.916132812499999 141.9878472222222)"/><use xlink:href="#Z" transform="matrix(1,0,0,1,903.7818886121756,464.5615041250501) translate(5.811749131944445 171.56467013888886)"/></g><path d="M1146.6 842.8h56.5" stroke="#000" stroke-width="2" fill="none"/><path d="M1146.62 843.76h-1.03v-1.95h1.02z" stroke="#000" stroke-width=".05"/><path d="M1218.36 842.8l-14.27 4.62v-9.27z" stroke="#000" stroke-width="2"/><defs><path fill="#fff" d="M370-1490V0H180v-1490h190" id="aa"/><path fill="#fff" d="M613 24c-304 0-509-231-509-576 0-350 205-580 509-580 305 0 511 230 511 580 0 345-206 576-511 576zm0-161c226 0 329-195 329-415 0-222-103-419-329-419-223 0-326 196-326 419 0 220 103 415 326 415" id="ab"/><path fill="#fff" d="M98-1322v-168h1126v168H757V0H567v-1322H98" id="ac"/><g id="a"><use transform="matrix(0.011935763888888888,0,0,0.011935763888888888,0,0)" xlink:href="#aa"/><use transform="matrix(0.011935763888888888,0,0,0.011935763888888888,6.564670138888888,0)" xlink:href="#ab"/><use transform="matrix(0.011935763888888888,0,0,0.011935763888888888,19.31206597222222,0)" xlink:href="#ac"/></g><path fill="#fff" d="M645 0H180v-1490h484c435 0 692 280 692 742 0 466-257 748-711 748zM370-168h263c363 0 539-218 539-580 0-358-176-574-521-574H370v1154" id="ad"/><path fill="#fff" d="M471 26C259 26 90-98 90-318c0-256 228-303 435-329 202-27 287-16 287-108 0-139-79-219-234-219-161 0-248 86-283 164l-173-57c86-203 278-265 451-265 150 0 419 46 419 395V0H815v-152h-12C765-73 660 26 471 26zm31-159c199 0 310-134 310-271v-155c-30 35-226 55-295 64-131 17-246 59-246 186 0 116 97 176 231 176" id="ae"/><path fill="#fff" d="M598-1118v154H368v674c0 100 37 144 132 144 23 0 62-6 92-12L629-6c-37 13-88 20-134 20-193 0-307-107-307-290v-688H20v-154h168v-266h180v266h230" id="af"/><g id="b"><use transform="matrix(0.011935763888888888,0,0,0.011935763888888888,0,0)" xlink:href="#ad"/><use transform="matrix(0.011935763888888888,0,0,0.011935763888888888,17.641059027777775,0)" xlink:href="#ae"/><use transform="matrix(0.011935763888888888,0,0,0.011935763888888888,31.367187499999996,0)" xlink:href="#af"/><use transform="matrix(0.011935763888888888,0,0,0.011935763888888888,39.48350694444444,0)" xlink:href="#ae"/></g><path fill="#fff" d="M180 0v-1490h901v168H370v510h643v168H370V0H180" id="ag"/><path fill="#fff" d="M338-1490V0H158v-1490h180" id="ah"/><path fill="#fff" d="M409 0L70-1118h191c89 329 165 560 243 925 75-353 154-601 240-925h192c85 325 161 564 235 922 77-354 157-598 244-922h191L1267 0h-179c-86-307-176-590-250-913C763-588 675-308 588 0H409" id="ai"/><path fill="#fff" d="M295 13c-75 0-135-60-135-135s60-135 135-135 135 60 135 135S370 13 295 13zm0-809c-75 0-135-60-135-135s60-135 135-135 135 60 135 135-60 135-135 135" id="aj"/><g id="c"><use transform="matrix(0.011935763888888888,0,0,0.011935763888888888,0,0)" xlink:href="#ag"/><use transform="matrix(0.011935763888888888,0,0,0.011935763888888888,14.430338541666666,0)" xlink:href="#ah"/><use transform="matrix(0.011935763888888888,0,0,0.011935763888888888,20.350477430555554,0)" xlink:href="#ab"/><use transform="matrix(0.011935763888888888,0,0,0.011935763888888888,34.56597222222222,0)" xlink:href="#ai"/><use transform="matrix(0.011935763888888888,0,0,0.011935763888888888,54.5703125,0)" xlink:href="#aj"/></g><path fill="#fff" d="M180 0v-1490h224l606 953c40 63 108 177 176 312-27-437-7-821-13-1265h190V0h-226C860-448 622-778 356-1262c27 476 11 792 15 1262H180" id="ak"/><path fill="#fff" d="M577 24c-279 0-473-224-473-580 0-354 195-576 474-576 218 0 287 134 324 193h14v-551h180V0H922v-173h-20C865-111 790 24 577 24zm27-161c203 0 314-172 314-421 0-247-108-413-314-413-212 0-317 181-317 413 0 235 108 421 317 421" id="al"/><path fill="#fff" d="M628 24c-324 0-524-230-524-574 0-343 198-582 503-582 237 0 487 146 487 559v75H286c9 234 145 362 343 362 132 0 231-58 273-172l174 48C1024-91 857 24 628 24zM287-650h624c-17-190-120-322-304-322-192 0-309 151-320 322" id="am"/><path fill="#fff" d="M1024-719v166H0v-166h1024" id="an"/><path fill="#fff" d="M180 0v-1490h908v168H370v486h669v168H370v500h727V0H180" id="ao"/><path fill="#fff" d="M611 442c-248 0-391-105-460-228l146-94c47 65 117 165 314 165 178 0 307-82 307-266v-224h-17C863-141 792-18 576-18c-268 0-472-195-472-546 0-346 197-568 476-568 216 0 288 133 326 193h17v-179h175V29c0 289-215 413-487 413zm-5-620c203 0 314-146 314-390 0-237-108-403-314-403-213 0-319 180-319 403 0 230 109 390 319 390" id="ap"/><path fill="#fff" d="M763 24c-353 0-583-224-583-531v-983h190v968c0 214 149 370 393 370 243 0 391-156 391-370v-968h190v983c0 307-230 531-581 531" id="aq"/><path fill="#fff" d="M538 24C308 24 148-78 108-271l171-41c32 123 123 178 257 178 156 0 256-77 256-169 0-77-54-128-164-154l-186-44c-203-48-300-148-300-305 0-192 176-326 414-326 230 0 351 112 402 269l-163 42c-31-80-94-158-238-158-133 0-233 69-233 162 0 83 57 129 188 160l169 40c203 48 298 149 298 302 0 196-179 339-441 339" id="ar"/><path fill="#fff" d="M158 0v-1118h174v172h12c41-113 157-188 290-188 26 0 70 2 91 3v181c-11-2-60-10-108-10-161 0-279 109-279 260V0H158" id="as"/><g id="d"><use transform="matrix(0.011935763888888888,0,0,0.011935763888888888,0,0)" xlink:href="#ak"/><use transform="matrix(0.011935763888888888,0,0,0.011935763888888888,18.416883680555554,0)" xlink:href="#ab"/><use transform="matrix(0.011935763888888888,0,0,0.011935763888888888,33.07400173611111,0)" xlink:href="#al"/><use transform="matrix(0.011935763888888888,0,0,0.011935763888888888,48.04144965277777,0)" xlink:href="#am"/><use transform="matrix(0.011935763888888888,0,0,0.011935763888888888,62.29275173611109,0)" xlink:href="#an"/><use transform="matrix(0.011935763888888888,0,0,0.011935763888888888,74.51497395833331,0)" xlink:href="#ao"/><use transform="matrix(0.011935763888888888,0,0,0.011935763888888888,89.20789930555554,0)" xlink:href="#al"/><use transform="matrix(0.011935763888888888,0,0,0.011935763888888888,104.17534722222221,0)" xlink:href="#ap"/><use transform="matrix(0.011935763888888888,0,0,0.011935763888888888,119.16666666666666,0)" xlink:href="#am"/><use transform="matrix(0.011935763888888888,0,0,0.011935763888888888,133.41796875,0)" xlink:href="#an"/><use transform="matrix(0.011935763888888888,0,0,0.011935763888888888,145.64019097222223,0)" xlink:href="#aq"/><use transform="matrix(0.011935763888888888,0,0,0.011935763888888888,163.83029513888889,0)" xlink:href="#ar"/><use transform="matrix(0.011935763888888888,0,0,0.011935763888888888,176.73285590277777,0)" xlink:href="#am"/><use transform="matrix(0.011935763888888888,0,0,0.011935763888888888,190.98415798611111,0)" xlink:href="#as"/></g><path fill="#fff" d="M180 0v-1490h190v1322h690V0H180" id="at"/><path fill="#fff" d="M140 405l46-156c120 36 205 19 263-150l32-93L54-1118h197c107 313 237 620 324 950 87-331 219-637 326-950h196L606 167c-68 178-176 259-334 259-64 0-113-12-132-21" id="au"/><g id="e"><use transform="matrix(0.011935763888888888,0,0,0.011935763888888888,0,0)" xlink:href="#at"/><use transform="matrix(0.011935763888888888,0,0,0.011935763888888888,13.821614583333332,0)" xlink:href="#ae"/><use transform="matrix(0.011935763888888888,0,0,0.011935763888888888,27.189670138888886,0)" xlink:href="#au"/><use transform="matrix(0.011935763888888888,0,0,0.011935763888888888,40.45030381944444,0)" xlink:href="#am"/><use transform="matrix(0.011935763888888888,0,0,0.011935763888888888,54.70160590277777,0)" xlink:href="#as"/><use transform="matrix(0.011935763888888888,0,0,0.011935763888888888,63.90407986111109,0)" xlink:href="#ar"/></g><path d="M763 24c-353 0-583-224-583-531v-983h190v968c0 214 149 370 393 370 243 0 391-156 391-370v-968h190v983c0 307-230 531-581 531" id="av"/><path d="M538 24C308 24 148-78 108-271l171-41c32 123 123 178 257 178 156 0 256-77 256-169 0-77-54-128-164-154l-186-44c-203-48-300-148-300-305 0-192 176-326 414-326 230 0 351 112 402 269l-163 42c-31-80-94-158-238-158-133 0-233 69-233 162 0 83 57 129 188 160l169 40c203 48 298 149 298 302 0 196-179 339-441 339" id="aw"/><path d="M628 24c-324 0-524-230-524-574 0-343 198-582 503-582 237 0 487 146 487 559v75H286c9 234 145 362 343 362 132 0 231-58 273-172l174 48C1024-91 857 24 628 24zM287-650h624c-17-190-120-322-304-322-192 0-309 151-320 322" id="ax"/><path d="M158 0v-1118h174v172h12c41-113 157-188 290-188 26 0 70 2 91 3v181c-11-2-60-10-108-10-161 0-279 109-279 260V0H158" id="ay"/><g id="f"><use transform="matrix(0.011935763888888888,0,0,0.011935763888888888,0,0)" xlink:href="#av"/><use transform="matrix(0.011935763888888888,0,0,0.011935763888888888,18.190104166666664,0)" xlink:href="#aw"/><use transform="matrix(0.011935763888888888,0,0,0.011935763888888888,31.092664930555546,0)" xlink:href="#ax"/><use transform="matrix(0.011935763888888888,0,0,0.011935763888888888,45.343967013888886,0)" xlink:href="#ay"/></g><path d="M180 0v-1490h190v1322h690V0H180" id="az"/><path d="M471 26C259 26 90-98 90-318c0-256 228-303 435-329 202-27 287-16 287-108 0-139-79-219-234-219-161 0-248 86-283 164l-173-57c86-203 278-265 451-265 150 0 419 46 419 395V0H815v-152h-12C765-73 660 26 471 26zm31-159c199 0 310-134 310-271v-155c-30 35-226 55-295 64-131 17-246 59-246 186 0 116 97 176 231 176" id="aA"/><path d="M140 405l46-156c120 36 205 19 263-150l32-93L54-1118h197c107 313 237 620 324 950 87-331 219-637 326-950h196L606 167c-68 178-176 259-334 259-64 0-113-12-132-21" id="aB"/><g id="g"><use transform="matrix(0.011935763888888888,0,0,0.011935763888888888,0,0)" xlink:href="#az"/><use transform="matrix(0.011935763888888888,0,0,0.011935763888888888,13.821614583333332,0)" xlink:href="#aA"/><use transform="matrix(0.011935763888888888,0,0,0.011935763888888888,27.189670138888886,0)" xlink:href="#aB"/><use transform="matrix(0.011935763888888888,0,0,0.011935763888888888,40.45030381944444,0)" xlink:href="#ax"/><use transform="matrix(0.011935763888888888,0,0,0.011935763888888888,54.70160590277777,0)" xlink:href="#ay"/></g><path d="M180 0v-1490h908v168H370v486h669v168H370v500h727V0H180" id="aC"/><path d="M577 24c-279 0-473-224-473-580 0-354 195-576 474-576 218 0 287 134 324 193h14v-551h180V0H922v-173h-20C865-111 790 24 577 24zm27-161c203 0 314-172 314-421 0-247-108-413-314-413-212 0-317 181-317 413 0 235 108 421 317 421" id="aD"/><path d="M611 442c-248 0-391-105-460-228l146-94c47 65 117 165 314 165 178 0 307-82 307-266v-224h-17C863-141 792-18 576-18c-268 0-472-195-472-546 0-346 197-568 476-568 216 0 288 133 326 193h17v-179h175V29c0 289-215 413-487 413zm-5-620c203 0 314-146 314-390 0-237-108-403-314-403-213 0-319 180-319 403 0 230 109 390 319 390" id="aE"/><g id="h"><use transform="matrix(0.011935763888888888,0,0,0.011935763888888888,0,0)" xlink:href="#aC"/><use transform="matrix(0.011935763888888888,0,0,0.011935763888888888,14.692925347222221,0)" xlink:href="#aD"/><use transform="matrix(0.011935763888888888,0,0,0.011935763888888888,29.660373263888886,0)" xlink:href="#aE"/><use transform="matrix(0.011935763888888888,0,0,0.011935763888888888,44.65169270833333,0)" xlink:href="#ax"/></g><g id="i"><use transform="matrix(0.011935763888888888,0,0,0.011935763888888888,0,0)" xlink:href="#az"/><use transform="matrix(0.011935763888888888,0,0,0.011935763888888888,13.821614583333332,0)" xlink:href="#aA"/><use transform="matrix(0.011935763888888888,0,0,0.011935763888888888,27.189670138888886,0)" xlink:href="#aB"/><use transform="matrix(0.011935763888888888,0,0,0.011935763888888888,40.45030381944444,0)" xlink:href="#ax"/><use transform="matrix(0.011935763888888888,0,0,0.011935763888888888,54.70160590277777,0)" xlink:href="#ay"/></g><path d="M180 0v-1490h224l606 953c40 63 108 177 176 312-27-437-7-821-13-1265h190V0h-226C860-448 622-778 356-1262c27 476 11 792 15 1262H180" id="aF"/><path d="M613 24c-304 0-509-231-509-576 0-350 205-580 509-580 305 0 511 230 511 580 0 345-206 576-511 576zm0-161c226 0 329-195 329-415 0-222-103-419-329-419-223 0-326 196-326 419 0 220 103 415 326 415" id="aG"/><g id="j"><use transform="matrix(0.011935763888888888,0,0,0.011935763888888888,0,0)" xlink:href="#aF"/><use transform="matrix(0.011935763888888888,0,0,0.011935763888888888,18.416883680555554,0)" xlink:href="#aG"/><use transform="matrix(0.011935763888888888,0,0,0.011935763888888888,33.07400173611111,0)" xlink:href="#aD"/><use transform="matrix(0.011935763888888888,0,0,0.011935763888888888,48.04144965277777,0)" xlink:href="#ax"/></g><path d="M783 20c-382 0-661-292-661-764 0-473 279-766 661-766 302 0 548 182 601 489h-190c-42-204-217-313-411-313-268 0-476 208-476 590 0 381 209 588 476 588 195 0 369-110 411-313h190c-52 303-296 489-601 489" id="aH"/><path d="M338-1490V0H158v-1490h180" id="aI"/><path d="M158 0v-1118h180V0H158zm91-1301c-68 0-125-53-125-119s57-119 125-119c69 0 126 53 126 119s-57 119-126 119" id="aJ"/><path d="M338-670V0H158v-1118h173l1 207c72-158 192-221 342-221 226 0 378 139 378 422V0H872v-695c0-172-96-275-252-275-161 0-282 109-282 300" id="aK"/><path d="M598-1118v154H368v674c0 100 37 144 132 144 23 0 62-6 92-12L629-6c-37 13-88 20-134 20-193 0-307-107-307-290v-688H20v-154h168v-266h180v266h230" id="aL"/><g id="k"><use transform="matrix(0.011935763888888888,0,0,0.011935763888888888,0,0)" xlink:href="#aH"/><use transform="matrix(0.011935763888888888,0,0,0.011935763888888888,17.855902777777775,0)" xlink:href="#aI"/><use transform="matrix(0.011935763888888888,0,0,0.011935763888888888,23.776041666666664,0)" xlink:href="#aJ"/><use transform="matrix(0.011935763888888888,0,0,0.011935763888888888,29.696180555555554,0)" xlink:href="#ax"/><use transform="matrix(0.011935763888888888,0,0,0.011935763888888888,43.947482638888886,0)" xlink:href="#aK"/><use transform="matrix(0.011935763888888888,0,0,0.011935763888888888,58.38975694444444,0)" xlink:href="#aL"/></g><path d="M657 26c-323 0-524-166-541-416h195c15 169 171 246 346 246 202 0 356-106 356-265 5-203-294-238-475-293-239-73-380-191-380-389 0-252 224-419 512-419 294 0 499 171 508 396H992c-17-145-151-228-328-228-193 0-321 102-321 242 0 156 175 211 284 241l149 41c160 44 422 134 422 412 0 244-197 432-541 432" id="aM"/><path d="M158 0v-1118h175l1 205c55-151 181-225 313-225 147 0 245 90 285 228 53-141 190-228 352-228 194 0 352 125 352 384V0h-181v-749c0-161-105-225-225-225-151 0-243 103-243 244V0H807v-767c0-124-93-207-219-207-131 0-250 92-250 270V0H158" id="aN"/><g id="l"><use transform="matrix(0.011935763888888888,0,0,0.011935763888888888,0,0)" xlink:href="#aM"/><use transform="matrix(0.011935763888888888,0,0,0.011935763888888888,15.683593749999998,0)" xlink:href="#aL"/><use transform="matrix(0.011935763888888888,0,0,0.011935763888888888,23.680555555555554,0)" xlink:href="#ay"/><use transform="matrix(0.011935763888888888,0,0,0.011935763888888888,32.477213541666664,0)" xlink:href="#ax"/><use transform="matrix(0.011935763888888888,0,0,0.011935763888888888,46.96723090277777,0)" xlink:href="#aA"/><use transform="matrix(0.011935763888888888,0,0,0.011935763888888888,60.69335937499999,0)" xlink:href="#aN"/><use transform="matrix(0.011935763888888888,0,0,0.011935763888888888,82.10611979166666,0)" xlink:href="#aI"/><use transform="matrix(0.011935763888888888,0,0,0.011935763888888888,88.02625868055554,0)" xlink:href="#aJ"/><use transform="matrix(0.011935763888888888,0,0,0.011935763888888888,93.94639756944443,0)" xlink:href="#aL"/></g><path d="M158 418v-1536h174v179h20c37-59 106-193 324-193 279 0 474 222 474 576 0 356-194 580-473 580-213 0-288-135-325-197h-14v591H158zm492-555c209 0 317-186 317-421 0-232-105-413-317-413-206 0-314 166-314 413 0 249 111 421 314 421" id="aO"/><g id="m"><use transform="matrix(0.011935763888888888,0,0,0.011935763888888888,0,0)" xlink:href="#aA"/><use transform="matrix(0.011935763888888888,0,0,0.011935763888888888,13.726128472222221,0)" xlink:href="#aO"/><use transform="matrix(0.011935763888888888,0,0,0.011935763888888888,28.693576388888886,0)" xlink:href="#aO"/></g><path d="M218-607c0-325 108-727 258-974h175c-155 315-250 682-250 974 0 265 78 531 250 886H476C306-10 218-315 218-607" id="aP"/><path d="M934 0v166H0V0h934" id="aQ"/><path d="M295 13c-75 0-135-60-135-135s60-135 135-135 135 60 135 135S370 13 295 13" id="aR"/><path d="M96 279C273-86 346-350 346-607c0-292-95-659-250-974h175c150 246 258 650 258 974 0 297-91 602-258 886H96" id="aS"/><g id="n"><use transform="matrix(0.011935763888888888,0,0,0.011935763888888888,0,0)" xlink:href="#aP"/><use transform="matrix(0.011935763888888888,0,0,0.011935763888888888,8.916015625,0)" xlink:href="#aw"/><use transform="matrix(0.011935763888888888,0,0,0.011935763888888888,21.818576388888886,0)" xlink:href="#aL"/><use transform="matrix(0.011935763888888888,0,0,0.011935763888888888,29.815538194444443,0)" xlink:href="#ay"/><use transform="matrix(0.011935763888888888,0,0,0.011935763888888888,38.61219618055556,0)" xlink:href="#ax"/><use transform="matrix(0.011935763888888888,0,0,0.011935763888888888,53.10221354166667,0)" xlink:href="#aA"/><use transform="matrix(0.011935763888888888,0,0,0.011935763888888888,66.82834201388889,0)" xlink:href="#aN"/><use transform="matrix(0.011935763888888888,0,0,0.011935763888888888,88.24110243055554,0)" xlink:href="#aI"/><use transform="matrix(0.011935763888888888,0,0,0.011935763888888888,94.16124131944443,0)" xlink:href="#aJ"/><use transform="matrix(0.011935763888888888,0,0,0.011935763888888888,100.0813802083333,0)" xlink:href="#aL"/><use transform="matrix(0.011935763888888888,0,0,0.011935763888888888,108.07834201388889,0)" xlink:href="#aQ"/><use transform="matrix(0.011935763888888888,0,0,0.011935763888888888,119.22634548611109,0)" xlink:href="#aA"/><use transform="matrix(0.011935763888888888,0,0,0.011935763888888888,132.95247395833331,0)" xlink:href="#aO"/><use transform="matrix(0.011935763888888888,0,0,0.011935763888888888,147.91992187499997,0)" xlink:href="#aO"/><use transform="matrix(0.011935763888888888,0,0,0.011935763888888888,162.88736979166663,0)" xlink:href="#aR"/><use transform="matrix(0.011935763888888888,0,0,0.011935763888888888,169.9294704861111,0)" xlink:href="#aO"/><use transform="matrix(0.011935763888888888,0,0,0.011935763888888888,184.4194878472222,0)" xlink:href="#aB"/><use transform="matrix(0.011935763888888888,0,0,0.011935763888888888,198.15755208333331,0)" xlink:href="#aS"/></g><path d="M130 0v-134l666-991c45-67 96-135 147-202-269 9-546 3-821 5v-168h1036v136L502-379c-49 72-103 145-157 216 268-9 546-3 821-5V0H130" id="aT"/><path d="M158 0v-1490h180v865h22l478-493h223L593-638 1096 0H865L456-523 338-412V0H158" id="aU"/><g id="o"><use transform="matrix(0.011935763888888888,0,0,0.011935763888888888,0,0)" xlink:href="#aT"/><use transform="matrix(0.011935763888888888,0,0,0.011935763888888888,15.373263888888888,0)" xlink:href="#ay"/><use transform="matrix(0.011935763888888888,0,0,0.011935763888888888,24.169921875,0)" xlink:href="#aG"/><use transform="matrix(0.011935763888888888,0,0,0.011935763888888888,38.82703993055556,0)" xlink:href="#aU"/></g><path d="M98-1322v-168h1126v168H757V0H567v-1322H98" id="aV"/><path d="M537 14c-226 0-379-139-379-422v-710h180v695c0 172 97 275 253 275 160 0 281-109 281-300v-670h181V0H879v-209C806-46 684 14 537 14" id="aW"/><g id="p"><use transform="matrix(0.011935763888888888,0,0,0.011935763888888888,0,0)" xlink:href="#aV"/><use transform="matrix(0.011935763888888888,0,0,0.011935763888888888,13.976779513888888,0)" xlink:href="#aW"/><use transform="matrix(0.011935763888888888,0,0,0.011935763888888888,28.430989583333332,0)" xlink:href="#aK"/><use transform="matrix(0.011935763888888888,0,0,0.011935763888888888,42.873263888888886,0)" xlink:href="#aK"/><use transform="matrix(0.011935763888888888,0,0,0.011935763888888888,57.31553819444444,0)" xlink:href="#ax"/><use transform="matrix(0.011935763888888888,0,0,0.011935763888888888,71.56684027777777,0)" xlink:href="#aI"/></g><path d="M126 0v-134l627-806v-11H146v-167h839v143L376-178v11h629V0H126" id="aX"/><g id="q"><use transform="matrix(0.011935763888888888,0,0,0.011935763888888888,0,0)" xlink:href="#aP"/><use transform="matrix(0.011935763888888888,0,0,0.011935763888888888,8.916015625,0)" xlink:href="#aX"/><use transform="matrix(0.011935763888888888,0,0,0.011935763888888888,22.415364583333332,0)" xlink:href="#ay"/><use transform="matrix(0.011935763888888888,0,0,0.011935763888888888,31.212022569444443,0)" xlink:href="#aG"/><use transform="matrix(0.011935763888888888,0,0,0.011935763888888888,45.869140625,0)" xlink:href="#aU"/><use transform="matrix(0.011935763888888888,0,0,0.011935763888888888,59.28493923611112,0)" xlink:href="#aS"/></g><path d="M180 0v-1490h510c348 0 508 194 508 460 0 198-88 351-276 417L1256 0h-220L726-579c-117 2-238 0-356 1V0H180zm190-747h312c235 0 327-108 327-283 0-177-92-293-329-293H370v576" id="aY"/><path d="M677 24c-213 0-288-135-325-197h-20V0H158v-1490h180v551h14c37-59 106-193 324-193 279 0 474 222 474 576 0 356-194 580-473 580zm-27-161c209 0 317-186 317-421 0-232-105-413-317-413-206 0-314 166-314 413 0 249 111 421 314 421" id="aZ"/><g id="r"><use transform="matrix(0.011935763888888888,0,0,0.011935763888888888,0,0)" xlink:href="#aY"/><use transform="matrix(0.011935763888888888,0,0,0.011935763888888888,15.611979166666666,0)" xlink:href="#aA"/><use transform="matrix(0.011935763888888888,0,0,0.011935763888888888,29.338107638888886,0)" xlink:href="#aw"/><use transform="matrix(0.011935763888888888,0,0,0.011935763888888888,42.24066840277777,0)" xlink:href="#aO"/><use transform="matrix(0.011935763888888888,0,0,0.011935763888888888,57.20811631944444,0)" xlink:href="#aZ"/><use transform="matrix(0.011935763888888888,0,0,0.011935763888888888,72.1755642361111,0)" xlink:href="#ax"/><use transform="matrix(0.011935763888888888,0,0,0.011935763888888888,86.42686631944443,0)" xlink:href="#ay"/><use transform="matrix(0.011935763888888888,0,0,0.011935763888888888,96.0112847222222,0)" xlink:href="#ay"/><use transform="matrix(0.011935763888888888,0,0,0.011935763888888888,105.59570312499997,0)" xlink:href="#aB"/></g><path d="M180 0v-1490h510c348 0 508 209 508 474 0 266-160 477-507 477H370V0H180zm190-706h312c236 0 327-133 327-310 0-176-91-307-329-307H370v617" id="ba"/><g id="s"><use transform="matrix(0.011935763888888888,0,0,0.011935763888888888,0,0)" xlink:href="#ba"/><use transform="matrix(0.011935763888888888,0,0,0.011935763888888888,15.611979166666666,0)" xlink:href="#aJ"/></g><path d="M180 0v-1490h901v168H370v510h643v168H370V0H180" id="bb"/><g id="t"><use transform="matrix(0.011935763888888888,0,0,0.011935763888888888,0,0)" xlink:href="#bb"/><use transform="matrix(0.011935763888888888,0,0,0.011935763888888888,14.430338541666666,0)" xlink:href="#aI"/><use transform="matrix(0.011935763888888888,0,0,0.011935763888888888,20.350477430555554,0)" xlink:href="#aA"/><use transform="matrix(0.011935763888888888,0,0,0.011935763888888888,34.07660590277777,0)" xlink:href="#aw"/><use transform="matrix(0.011935763888888888,0,0,0.011935763888888888,46.97916666666666,0)" xlink:href="#aU"/></g><path d="M180 0v-1490h190v644h782v-644h190V0h-190v-678H370V0H180" id="bc"/><g id="u"><use transform="matrix(0.011935763888888888,0,0,0.011935763888888888,0,0)" xlink:href="#bc"/><use transform="matrix(0.011935763888888888,0,0,0.011935763888888888,18.16623263888889,0)" xlink:href="#aV"/><use transform="matrix(0.011935763888888888,0,0,0.011935763888888888,33.9453125,0)" xlink:href="#aV"/><use transform="matrix(0.011935763888888888,0,0,0.011935763888888888,49.72439236111112,0)" xlink:href="#ba"/></g><path d="M481 0L54-1118h197c107 314 236 620 325 951 87-331 217-637 324-951h197L670 0H481" id="bd"/><g id="v"><use transform="matrix(0.011935763888888888,0,0,0.011935763888888888,0,0)" xlink:href="#aM"/><use transform="matrix(0.011935763888888888,0,0,0.011935763888888888,15.683593749999998,0)" xlink:href="#ax"/><use transform="matrix(0.011935763888888888,0,0,0.011935763888888888,29.934895833333325,0)" xlink:href="#ay"/><use transform="matrix(0.011935763888888888,0,0,0.011935763888888888,39.5193142361111,0)" xlink:href="#bd"/><use transform="matrix(0.011935763888888888,0,0,0.011935763888888888,52.77994791666665,0)" xlink:href="#ax"/><use transform="matrix(0.011935763888888888,0,0,0.011935763888888888,67.03124999999999,0)" xlink:href="#ay"/></g><path d="M635 20c-292 0-500-160-510-396h192c11 142 145 229 315 229 187 0 323-105 323-260 0-161-125-274-346-274H488v-165h121c174 0 294-100 294-254 0-148-104-245-266-245-152 0-291 85-297 230H157c8-234 222-395 484-395 278 0 448 188 448 400 0 168-95 291-247 336v12c190 31 301 169 301 357 0 244-216 425-508 425" id="be"/><path d="M154 0v-137l495-537c165-179 249-281 249-418 0-156-121-253-280-253-170 0-278 110-278 278H158c0-264 200-443 465-443 266 0 455 183 455 416 0 161-73 288-336 568L416-179v12h687V0H154" id="bf"/><g id="w"><use transform="matrix(0.011935763888888888,0,0,0.011935763888888888,0,0)" xlink:href="#aC"/><use transform="matrix(0.011935763888888888,0,0,0.011935763888888888,14.692925347222221,0)" xlink:href="#aM"/><use transform="matrix(0.011935763888888888,0,0,0.011935763888888888,30.37651909722222,0)" xlink:href="#ba"/><use transform="matrix(0.011935763888888888,0,0,0.011935763888888888,45.988498263888886,0)" xlink:href="#be"/><use transform="matrix(0.011935763888888888,0,0,0.011935763888888888,61.08723958333333,0)" xlink:href="#bf"/></g><path d="M180 0v-1490h270l367 940c28 72 75 218 110 339 35-117 81-264 110-339l362-940h271V0h-187c2-448-5-837 7-1287-157 497-311 829-483 1287H842C666-458 514-784 354-1284c12 438 5 843 7 1284H180" id="bg"/><path d="M613 24c-304 0-509-231-509-576 0-350 205-580 509-580 216 0 392 114 453 309l-173 49c-33-115-133-197-280-197-223 0-326 196-326 419 0 220 103 415 326 415 150 0 252-85 285-206l172 49C1010-95 832 24 613 24" id="bh"/><g id="x"><use transform="matrix(0.011935763888888888,0,0,0.011935763888888888,0,0)" xlink:href="#bg"/><use transform="matrix(0.011935763888888888,0,0,0.011935763888888888,22.081163194444443,0)" xlink:href="#aJ"/><use transform="matrix(0.011935763888888888,0,0,0.011935763888888888,28.001302083333332,0)" xlink:href="#bh"/><use transform="matrix(0.011935763888888888,0,0,0.011935763888888888,41.96614583333333,0)" xlink:href="#ay"/><use transform="matrix(0.011935763888888888,0,0,0.011935763888888888,50.76280381944444,0)" xlink:href="#aG"/><use transform="matrix(0.011935763888888888,0,0,0.011935763888888888,65.419921875,0)" xlink:href="#bh"/><use transform="matrix(0.011935763888888888,0,0,0.011935763888888888,79.384765625,0)" xlink:href="#aG"/><use transform="matrix(0.011935763888888888,0,0,0.011935763888888888,94.04188368055556,0)" xlink:href="#aK"/><use transform="matrix(0.011935763888888888,0,0,0.011935763888888888,108.4841579861111,0)" xlink:href="#aL"/><use transform="matrix(0.011935763888888888,0,0,0.011935763888888888,116.48111979166669,0)" xlink:href="#ay"/><use transform="matrix(0.011935763888888888,0,0,0.011935763888888888,125.27777777777777,0)" xlink:href="#aG"/><use transform="matrix(0.011935763888888888,0,0,0.011935763888888888,139.93489583333331,0)" xlink:href="#aI"/><use transform="matrix(0.011935763888888888,0,0,0.011935763888888888,145.8550347222222,0)" xlink:href="#aI"/><use transform="matrix(0.011935763888888888,0,0,0.011935763888888888,151.7751736111111,0)" xlink:href="#ax"/><use transform="matrix(0.011935763888888888,0,0,0.011935763888888888,166.02647569444443,0)" xlink:href="#ay"/></g><g id="y"><use transform="matrix(0.011935763888888888,0,0,0.011935763888888888,0,0)" xlink:href="#aP"/><use transform="matrix(0.011935763888888888,0,0,0.011935763888888888,8.641493055555555,0)" xlink:href="#ax"/><use transform="matrix(0.011935763888888888,0,0,0.011935763888888888,22.892795138888886,0)" xlink:href="#aw"/><use transform="matrix(0.011935763888888888,0,0,0.011935763888888888,35.79535590277777,0)" xlink:href="#aO"/><use transform="matrix(0.011935763888888888,0,0,0.011935763888888888,50.76280381944444,0)" xlink:href="#aR"/><use transform="matrix(0.011935763888888888,0,0,0.011935763888888888,57.80490451388887,0)" xlink:href="#aJ"/><use transform="matrix(0.011935763888888888,0,0,0.011935763888888888,63.725043402777764,0)" xlink:href="#aK"/><use transform="matrix(0.011935763888888888,0,0,0.011935763888888888,78.16731770833331,0)" xlink:href="#aG"/><use transform="matrix(0.011935763888888888,0,0,0.011935763888888888,92.54991319444443,0)" xlink:href="#aS"/></g><path d="M295 13c-75 0-135-60-135-135s60-135 135-135 135 60 135 135S370 13 295 13zm0-809c-75 0-135-60-135-135s60-135 135-135 135 60 135 135-60 135-135 135" id="bi"/><g id="z"><use transform="matrix(0.011935763888888888,0,0,0.011935763888888888,0,0)" xlink:href="#aM"/><use transform="matrix(0.011935763888888888,0,0,0.011935763888888888,15.683593749999998,0)" xlink:href="#ax"/><use transform="matrix(0.011935763888888888,0,0,0.011935763888888888,29.934895833333325,0)" xlink:href="#aK"/><use transform="matrix(0.011935763888888888,0,0,0.011935763888888888,44.377170138888886,0)" xlink:href="#aw"/><use transform="matrix(0.011935763888888888,0,0,0.011935763888888888,57.27973090277777,0)" xlink:href="#aG"/><use transform="matrix(0.011935763888888888,0,0,0.011935763888888888,71.93684895833333,0)" xlink:href="#ay"/><use transform="matrix(0.011935763888888888,0,0,0.011935763888888888,81.13932291666666,0)" xlink:href="#aw"/><use transform="matrix(0.011935763888888888,0,0,0.011935763888888888,94.04188368055554,0)" xlink:href="#bi"/></g><path d="M798-719v166H144v-166h654" id="bj"/><use transform="matrix(0.011935763888888888,0,0,0.011935763888888888,0,0)" xlink:href="#bj" id="A"/><g id="B"><use transform="matrix(0.011935763888888888,0,0,0.011935763888888888,0,0)" xlink:href="#bc"/><use transform="matrix(0.011935763888888888,0,0,0.011935763888888888,18.16623263888889,0)" xlink:href="#aW"/><use transform="matrix(0.011935763888888888,0,0,0.011935763888888888,32.62044270833333,0)" xlink:href="#aN"/><use transform="matrix(0.011935763888888888,0,0,0.011935763888888888,54.033203125,0)" xlink:href="#aJ"/><use transform="matrix(0.011935763888888888,0,0,0.011935763888888888,59.95334201388887,0)" xlink:href="#aD"/><use transform="matrix(0.011935763888888888,0,0,0.011935763888888888,74.92078993055554,0)" xlink:href="#aJ"/><use transform="matrix(0.011935763888888888,0,0,0.011935763888888888,80.84092881944443,0)" xlink:href="#aL"/><use transform="matrix(0.011935763888888888,0,0,0.011935763888888888,89.31532118055554,0)" xlink:href="#aB"/></g><path d="M692-1560L212 224H46l480-1784h166" id="bk"/><use transform="matrix(0.011935763888888888,0,0,0.011935763888888888,0,0)" xlink:href="#bk" id="C"/><g id="D"><use transform="matrix(0.011935763888888888,0,0,0.011935763888888888,0,0)" xlink:href="#aV"/><use transform="matrix(0.011935763888888888,0,0,0.011935763888888888,13.869357638888888,0)" xlink:href="#ax"/><use transform="matrix(0.011935763888888888,0,0,0.011935763888888888,28.12065972222222,0)" xlink:href="#aN"/><use transform="matrix(0.011935763888888888,0,0,0.011935763888888888,49.533420138888886,0)" xlink:href="#aO"/><use transform="matrix(0.011935763888888888,0,0,0.011935763888888888,64.50086805555556,0)" xlink:href="#ax"/><use transform="matrix(0.011935763888888888,0,0,0.011935763888888888,78.75217013888889,0)" xlink:href="#ay"/><use transform="matrix(0.011935763888888888,0,0,0.011935763888888888,87.95464409722221,0)" xlink:href="#aA"/><use transform="matrix(0.011935763888888888,0,0,0.011935763888888888,101.68077256944444,0)" xlink:href="#aL"/><use transform="matrix(0.011935763888888888,0,0,0.011935763888888888,109.677734375,0)" xlink:href="#aW"/><use transform="matrix(0.011935763888888888,0,0,0.011935763888888888,124.13194444444444,0)" xlink:href="#ay"/><use transform="matrix(0.011935763888888888,0,0,0.011935763888888888,132.92860243055554,0)" xlink:href="#ax"/></g><path d="M789 20c-398 0-667-293-667-764 0-473 273-766 655-766 315 0 558 198 612 487h-196c-61-191-204-311-415-311-262 0-471 207-471 590 0 380 208 588 482 588 249 0 420-165 425-427H828v-166h572v163c0 370-256 606-611 606" id="bl"/><g id="E"><use transform="matrix(0.011935763888888888,0,0,0.011935763888888888,0,0)" xlink:href="#bl"/><use transform="matrix(0.011935763888888888,0,0,0.011935763888888888,18.23784722222222,0)" xlink:href="#aA"/><use transform="matrix(0.011935763888888888,0,0,0.011935763888888888,31.963975694444443,0)" xlink:href="#aw"/></g><g id="F"><use transform="matrix(0.011935763888888888,0,0,0.011935763888888888,0,0)" xlink:href="#bc"/><use transform="matrix(0.011935763888888888,0,0,0.011935763888888888,18.16623263888889,0)" xlink:href="#aV"/><use transform="matrix(0.011935763888888888,0,0,0.011935763888888888,33.9453125,0)" xlink:href="#aV"/><use transform="matrix(0.011935763888888888,0,0,0.011935763888888888,49.72439236111112,0)" xlink:href="#ba"/></g><g id="G"><use transform="matrix(0.011935763888888888,0,0,0.011935763888888888,0,0)" xlink:href="#bd"/><use transform="matrix(0.011935763888888888,0,0,0.011935763888888888,13.73806423611111,0)" xlink:href="#aJ"/><use transform="matrix(0.011935763888888888,0,0,0.011935763888888888,19.658203125,0)" xlink:href="#aA"/></g><g id="H"><use transform="matrix(0.011935763888888888,0,0,0.011935763888888888,0,0)" xlink:href="#aX"/><use transform="matrix(0.011935763888888888,0,0,0.011935763888888888,13.499348958333332,0)" xlink:href="#ay"/><use transform="matrix(0.011935763888888888,0,0,0.011935763888888888,22.296006944444443,0)" xlink:href="#aG"/><use transform="matrix(0.011935763888888888,0,0,0.011935763888888888,36.953125,0)" xlink:href="#aU"/></g><g id="I"><use transform="matrix(0.011935763888888888,0,0,0.011935763888888888,0,0)" xlink:href="#aL"/><use transform="matrix(0.011935763888888888,0,0,0.011935763888888888,7.996961805555555,0)" xlink:href="#aW"/><use transform="matrix(0.011935763888888888,0,0,0.011935763888888888,22.451171875,0)" xlink:href="#aK"/><use transform="matrix(0.011935763888888888,0,0,0.011935763888888888,36.89344618055556,0)" xlink:href="#aK"/><use transform="matrix(0.011935763888888888,0,0,0.011935763888888888,51.33572048611112,0)" xlink:href="#ax"/><use transform="matrix(0.011935763888888888,0,0,0.011935763888888888,65.58702256944444,0)" xlink:href="#aI"/><use transform="matrix(0.011935763888888888,0,0,0.011935763888888888,71.50716145833333,0)" xlink:href="#bi"/></g><path d="M232-923l-22-567h194l-22 567H232zm340 0l-22-567h194l-22 567H572" id="bm"/><path d="M678-1118v154H420V0H240v-964H20v-154h220v-149c0-194 155-293 318-293 85 0 141 18 168 30l-50 154c-19-6-47-17-97-17-111 0-159 58-159 166v109h258" id="bn"/><path d="M338-670V0H158v-1490h180v566c73-149 190-208 336-208 226 0 379 139 379 422V0H872v-695c0-172-96-275-252-275-161 0-282 109-282 300" id="bo"/><g id="J"><use transform="matrix(0.011935763888888888,0,0,0.011935763888888888,0,0)" xlink:href="#bm"/><use transform="matrix(0.011935763888888888,0,0,0.011935763888888888,11.38671875,0)" xlink:href="#bn"/><use transform="matrix(0.011935763888888888,0,0,0.011935763888888888,19.717881944444443,0)" xlink:href="#ax"/><use transform="matrix(0.011935763888888888,0,0,0.011935763888888888,33.96918402777777,0)" xlink:href="#aL"/><use transform="matrix(0.011935763888888888,0,0,0.011935763888888888,41.72743055555555,0)" xlink:href="#bh"/><use transform="matrix(0.011935763888888888,0,0,0.011935763888888888,55.69227430555555,0)" xlink:href="#bo"/></g><g id="K"><use transform="matrix(0.011935763888888888,0,0,0.011935763888888888,0,0)" xlink:href="#aD"/><use transform="matrix(0.011935763888888888,0,0,0.011935763888888888,14.967447916666666,0)" xlink:href="#aA"/><use transform="matrix(0.011935763888888888,0,0,0.011935763888888888,28.693576388888886,0)" xlink:href="#aL"/><use transform="matrix(0.011935763888888888,0,0,0.011935763888888888,36.80989583333333,0)" xlink:href="#aA"/><use transform="matrix(0.011935763888888888,0,0,0.011935763888888888,50.53602430555555,0)" xlink:href="#bm"/></g><g id="L"><use transform="matrix(0.011935763888888888,0,0,0.011935763888888888,0,0)" xlink:href="#aL"/><use transform="matrix(0.011935763888888888,0,0,0.011935763888888888,7.996961805555555,0)" xlink:href="#aW"/><use transform="matrix(0.011935763888888888,0,0,0.011935763888888888,22.451171875,0)" xlink:href="#aK"/><use transform="matrix(0.011935763888888888,0,0,0.011935763888888888,36.89344618055556,0)" xlink:href="#aK"/><use transform="matrix(0.011935763888888888,0,0,0.011935763888888888,51.33572048611112,0)" xlink:href="#ax"/><use transform="matrix(0.011935763888888888,0,0,0.011935763888888888,65.58702256944444,0)" xlink:href="#aI"/></g><g id="M"><use transform="matrix(0.011935763888888888,0,0,0.011935763888888888,0,0)" xlink:href="#aP"/><use transform="matrix(0.011935763888888888,0,0,0.011935763888888888,8.916015625,0)" xlink:href="#aI"/><use transform="matrix(0.011935763888888888,0,0,0.011935763888888888,14.836154513888888,0)" xlink:href="#aG"/><use transform="matrix(0.011935763888888888,0,0,0.011935763888888888,29.493272569444443,0)" xlink:href="#bh"/><use transform="matrix(0.011935763888888888,0,0,0.011935763888888888,43.69683159722222,0)" xlink:href="#aA"/><use transform="matrix(0.011935763888888888,0,0,0.011935763888888888,57.42296006944444,0)" xlink:href="#aI"/></g><path d="M52 0l541-1490h220L1361 0h-200l-149-416H398L254 0H52zm404-582h497c-103-290-145-390-251-756-108 377-145 460-246 756" id="bp"/><g id="N"><use transform="matrix(0.011935763888888888,0,0,0.011935763888888888,0,0)" xlink:href="#az"/><use transform="matrix(0.011935763888888888,0,0,0.011935763888888888,13.821614583333332,0)" xlink:href="#bp"/><use transform="matrix(0.011935763888888888,0,0,0.011935763888888888,30.686848958333332,0)" xlink:href="#aF"/><use transform="matrix(0.011935763888888888,0,0,0.011935763888888888,49.103732638888886,0)" xlink:href="#aS"/><use transform="matrix(0.011935763888888888,0,0,0.011935763888888888,58.019748263888886,0)" xlink:href="#bi"/></g><path d="M1096 418H916v-591h-14C865-111 790 24 577 24c-279 0-473-224-473-580 0-354 195-576 474-576 218 0 287 134 324 193h20v-179h174V418zM604-137c203 0 314-172 314-421 0-247-108-413-314-413-212 0-317 181-317 413 0 235 108 421 317 421" id="bq"/><g id="O"><use transform="matrix(0.011935763888888888,0,0,0.011935763888888888,0,0)" xlink:href="#ay"/><use transform="matrix(0.011935763888888888,0,0,0.011935763888888888,8.79665798611111,0)" xlink:href="#ax"/><use transform="matrix(0.011935763888888888,0,0,0.011935763888888888,23.047960069444443,0)" xlink:href="#bq"/><use transform="matrix(0.011935763888888888,0,0,0.011935763888888888,38.01540798611111,0)" xlink:href="#aW"/><use transform="matrix(0.011935763888888888,0,0,0.011935763888888888,52.46961805555555,0)" xlink:href="#ax"/><use transform="matrix(0.011935763888888888,0,0,0.011935763888888888,66.72092013888889,0)" xlink:href="#aw"/><use transform="matrix(0.011935763888888888,0,0,0.011935763888888888,79.62348090277777,0)" xlink:href="#aL"/></g><g id="P"><use transform="matrix(0.011935763888888888,0,0,0.011935763888888888,0,0)" xlink:href="#ay"/><use transform="matrix(0.011935763888888888,0,0,0.011935763888888888,8.79665798611111,0)" xlink:href="#ax"/><use transform="matrix(0.011935763888888888,0,0,0.011935763888888888,23.28667534722222,0)" xlink:href="#aA"/><use transform="matrix(0.011935763888888888,0,0,0.011935763888888888,37.01280381944444,0)" xlink:href="#aD"/><use transform="matrix(0.011935763888888888,0,0,0.011935763888888888,51.98025173611111,0)" xlink:href="#aJ"/><use transform="matrix(0.011935763888888888,0,0,0.011935763888888888,57.90039062499999,0)" xlink:href="#aK"/><use transform="matrix(0.011935763888888888,0,0,0.011935763888888888,72.34266493055554,0)" xlink:href="#aE"/><use transform="matrix(0.011935763888888888,0,0,0.011935763888888888,87.33398437499999,0)" xlink:href="#aw"/></g><g id="Q"><use transform="matrix(0.011935763888888888,0,0,0.011935763888888888,0,0)" xlink:href="#aX"/><use transform="matrix(0.011935763888888888,0,0,0.011935763888888888,13.499348958333332,0)" xlink:href="#ay"/><use transform="matrix(0.011935763888888888,0,0,0.011935763888888888,22.296006944444443,0)" xlink:href="#aG"/><use transform="matrix(0.011935763888888888,0,0,0.011935763888888888,36.953125,0)" xlink:href="#aU"/></g><g id="R"><use transform="matrix(0.011935763888888888,0,0,0.011935763888888888,0,0)" xlink:href="#ay"/><use transform="matrix(0.011935763888888888,0,0,0.011935763888888888,8.79665798611111,0)" xlink:href="#ax"/><use transform="matrix(0.011935763888888888,0,0,0.011935763888888888,23.047960069444443,0)" xlink:href="#aw"/><use transform="matrix(0.011935763888888888,0,0,0.011935763888888888,35.95052083333333,0)" xlink:href="#aO"/><use transform="matrix(0.011935763888888888,0,0,0.011935763888888888,50.91796875,0)" xlink:href="#aG"/><use transform="matrix(0.011935763888888888,0,0,0.011935763888888888,65.57508680555554,0)" xlink:href="#aK"/><use transform="matrix(0.011935763888888888,0,0,0.011935763888888888,80.0173611111111,0)" xlink:href="#aw"/><use transform="matrix(0.011935763888888888,0,0,0.011935763888888888,92.91992187499999,0)" xlink:href="#ax"/></g><path d="M409 0L70-1118h191c89 329 165 560 243 925 75-353 154-601 240-925h192c85 325 161 564 235 922 77-354 157-598 244-922h191L1267 0h-179c-86-307-176-590-250-913C763-588 675-308 588 0H409" id="br"/><g id="S"><use transform="matrix(0.011935763888888888,0,0,0.011935763888888888,0,0)" xlink:href="#br"/><use transform="matrix(0.011935763888888888,0,0,0.011935763888888888,20.004340277777775,0)" xlink:href="#aJ"/><use transform="matrix(0.011935763888888888,0,0,0.011935763888888888,25.924479166666664,0)" xlink:href="#aL"/><use transform="matrix(0.011935763888888888,0,0,0.011935763888888888,33.92144097222222,0)" xlink:href="#bo"/></g><g id="T"><use transform="matrix(0.011935763888888888,0,0,0.011935763888888888,0,0)" xlink:href="#aO"/><use transform="matrix(0.011935763888888888,0,0,0.011935763888888888,14.967447916666666,0)" xlink:href="#ay"/><use transform="matrix(0.011935763888888888,0,0,0.011935763888888888,23.76410590277778,0)" xlink:href="#aG"/><use transform="matrix(0.011935763888888888,0,0,0.011935763888888888,38.421223958333336,0)" xlink:href="#bh"/><use transform="matrix(0.011935763888888888,0,0,0.011935763888888888,52.38606770833334,0)" xlink:href="#ax"/><use transform="matrix(0.011935763888888888,0,0,0.011935763888888888,66.63736979166667,0)" xlink:href="#aw"/><use transform="matrix(0.011935763888888888,0,0,0.011935763888888888,79.53993055555556,0)" xlink:href="#aw"/><use transform="matrix(0.011935763888888888,0,0,0.011935763888888888,92.44249131944444,0)" xlink:href="#ax"/><use transform="matrix(0.011935763888888888,0,0,0.011935763888888888,106.69379340277777,0)" xlink:href="#aD"/></g><g id="U"><use transform="matrix(0.011935763888888888,0,0,0.011935763888888888,0,0)" xlink:href="#aD"/><use transform="matrix(0.011935763888888888,0,0,0.011935763888888888,14.967447916666666,0)" xlink:href="#aA"/><use transform="matrix(0.011935763888888888,0,0,0.011935763888888888,28.693576388888886,0)" xlink:href="#aL"/><use transform="matrix(0.011935763888888888,0,0,0.011935763888888888,36.80989583333333,0)" xlink:href="#aA"/></g><g id="V"><use transform="matrix(0.011935763888888888,0,0,0.011935763888888888,0,0)" xlink:href="#bc"/><use transform="matrix(0.011935763888888888,0,0,0.011935763888888888,18.16623263888889,0)" xlink:href="#aV"/><use transform="matrix(0.011935763888888888,0,0,0.011935763888888888,33.9453125,0)" xlink:href="#aV"/><use transform="matrix(0.011935763888888888,0,0,0.011935763888888888,49.72439236111112,0)" xlink:href="#ba"/></g><g id="W"><use transform="matrix(0.011935763888888888,0,0,0.011935763888888888,0,0)" xlink:href="#az"/><use transform="matrix(0.011935763888888888,0,0,0.011935763888888888,13.821614583333332,0)" xlink:href="#bp"/><use transform="matrix(0.011935763888888888,0,0,0.011935763888888888,30.686848958333332,0)" xlink:href="#aF"/><use transform="matrix(0.011935763888888888,0,0,0.011935763888888888,49.103732638888886,0)" xlink:href="#aS"/><use transform="matrix(0.011935763888888888,0,0,0.011935763888888888,58.019748263888886,0)" xlink:href="#bi"/></g><g id="X"><use transform="matrix(0.011935763888888888,0,0,0.011935763888888888,0,0)" xlink:href="#aw"/><use transform="matrix(0.011935763888888888,0,0,0.011935763888888888,12.902560763888888,0)" xlink:href="#ax"/><use transform="matrix(0.011935763888888888,0,0,0.011935763888888888,27.15386284722222,0)" xlink:href="#aK"/><use transform="matrix(0.011935763888888888,0,0,0.011935763888888888,41.59613715277778,0)" xlink:href="#aw"/><use transform="matrix(0.011935763888888888,0,0,0.011935763888888888,54.498697916666664,0)" xlink:href="#aG"/><use transform="matrix(0.011935763888888888,0,0,0.011935763888888888,69.15581597222221,0)" xlink:href="#ay"/></g><g id="Y"><use transform="matrix(0.011935763888888888,0,0,0.011935763888888888,0,0)" xlink:href="#aD"/><use transform="matrix(0.011935763888888888,0,0,0.011935763888888888,14.967447916666666,0)" xlink:href="#aA"/><use transform="matrix(0.011935763888888888,0,0,0.011935763888888888,28.693576388888886,0)" xlink:href="#aL"/><use transform="matrix(0.011935763888888888,0,0,0.011935763888888888,36.80989583333333,0)" xlink:href="#aA"/></g><path d="M545 20c-263 0-445-160-445-446v-80h190v80c0 182 102 279 255 279 152 0 254-97 254-279v-1064h190v1064c0 286-181 446-444 446" id="bs"/><path d="M784 20c-382 0-662-292-662-764 0-473 280-766 662-766s660 293 660 766c0 472-278 764-660 764zm0-176c266 0 475-207 475-588 0-383-209-590-475-590-268 0-477 208-477 590 0 380 209 588 477 588" id="bt"/><g id="Z"><use transform="matrix(0.011935763888888888,0,0,0.011935763888888888,0,0)" xlink:href="#bs"/><use transform="matrix(0.011935763888888888,0,0,0.011935763888888888,13.95290798611111,0)" xlink:href="#aM"/><use transform="matrix(0.011935763888888888,0,0,0.011935763888888888,29.63650173611111,0)" xlink:href="#bt"/><use transform="matrix(0.011935763888888888,0,0,0.011935763888888888,48.32790798611111,0)" xlink:href="#aF"/></g></defs></g></svg>